<svg version="1.2" xmlns="http://www.w3.org/2000/svg" viewBox="0 0 512 512" width="512" height="512">
	<title>logo</title>
	<style>
		.s0 { fill: #222222 } 
		.s1 { fill: #8e4cf5 } 
		.s2 { fill: #ffffff } 
	</style>
	<g id="Layer 1">
		<path class="s0" d="m88 16h336c39.8 0 72 32.2 72 72v336c0 39.8-32.2 72-72 72h-336c-39.8 0-72-32.2-72-72v-336c0-39.8 32.2-72 72-72z"/>
		<g>
			<path class="s1" d="m281.6 55.4l3.9-0.6c15.3-2.7 29.8 7.4 32.5 22.7l61.1 346.6c2.7 15.2-7.5 29.8-22.7 32.5l-3.9 0.6c-15.3 2.7-29.8-7.4-32.5-22.7l-61.1-346.6c-2.7-15.2 7.5-29.8 22.7-32.5z"/>
		</g>
		<g>
			<path class="s2" d="m129.1 148.6l263.6-4.6c11.2-0.2 20.5 8.7 20.7 19.9l0.2 10.2c0.2 11.2-8.8 20.4-20 20.6l-263.7 4.6c-11.2 0.2-20.4-8.7-20.6-19.9l-0.2-10.2c-0.2-11.2 8.8-20.4 20-20.6z"/>
			<path id="Layer copy 5" class="s2" d="m90.1 148.6l263.6-4.6c11.2-0.2 20.5 8.7 20.7 19.9l0.2 10.2c0.2 11.2-8.8 20.4-20 20.6l-263.7 4.6c-11.2 0.2-20.4-8.7-20.6-19.9l-0.2-10.2c-0.2-11.2 8.8-20.4 20-20.6z"/>
		</g>
		<g id="Layer copy 2">
		</g>
		<g id="Layer copy 3">
			<path class="s2" d="m158.1 307.6l263.6-4.6c11.2-0.2 20.5 8.7 20.7 19.9l0.2 10.2c0.2 11.2-8.8 20.4-20 20.6l-263.7 4.6c-11.2 0.2-20.4-8.7-20.6-19.9l-0.2-10.2c-0.2-11.2 8.8-20.4 20-20.6z"/>
			<path id="Layer copy 6" class="s2" d="m119.1 307.6l263.6-4.6c11.2-0.2 20.5 8.7 20.7 19.9l0.2 10.2c0.2 11.2-8.8 20.4-20 20.6l-263.7 4.6c-11.2 0.2-20.4-8.7-20.6-19.9l-0.2-10.2c-0.2-11.2 8.8-20.4 20-20.6z"/>
			<path class="s1" d="m153.6 55.4l3.9-0.6c15.3-2.7 29.8 7.4 32.5 22.7l61.1 346.6c2.7 15.2-7.5 29.8-22.7 32.5l-3.9 0.6c-15.3 2.7-29.8-7.4-32.5-22.7l-61.1-346.6c-2.7-15.2 7.5-29.8 22.7-32.5z"/>
			<path id="Layer copy" class="s0" d="m228.4 223.3l1.8-0.3c6.9-1.2 13.4 3.3 14.6 10.2l27.6 156.2c1.2 6.8-3.4 13.4-10.3 14.6l-1.8 0.3c-6.8 1.2-13.4-3.4-14.6-10.2l-27.5-156.2c-1.2-6.9 3.4-13.4 10.2-14.6z"/>
			<path id="Layer copy 4" class="s0" d="m209.4 115.3l1.8-0.3c6.9-1.2 13.4 3.3 14.6 10.2l27.6 156.2c1.2 6.8-3.4 13.4-10.3 14.6l-1.8 0.3c-6.8 1.2-13.4-3.4-14.6-10.2l-27.5-156.2c-1.2-6.9 3.4-13.4 10.2-14.6z"/>
		</g>
	</g>
</svg>