<?xml version="1.0" encoding="utf-8"?>
<svg xmlns="http://www.w3.org/2000/svg" viewBox="0 0 500 500">
  <g id="Layer_1" transform="matrix(0.340731, 0, 0, 0.340731, 1026.504166, 381.495489)" style="">
    <g transform="matrix(1, 0, 0, 1, -2647.887491, -778.301281)">
      <title>logo</title>
      <g id="group-1" data-name="Layer 2" transform="matrix(0.289249, 0, 0, 0.289249, -262.134922, -232.071781)" style="">
        <g id="group-2" data-name="Layer 1">
          <path d="M1250,0C559.64,0,0,559.64,0,1250S559.64,2500,1250,2500s1250-559.64,1250-1250S1940.36,0,1250,0"/>
          <path class="cls-1" d="M1758.12,1790.62H1599.38V1453.13H900.62v337.49H741.87V696.25H900.62v329.37h698.76V696.25h158.75Zm-850-463.75h698.75V1152.5H908.12Z" style="fill: rgb(255, 255, 255);"/>
        </g>
      </g>
      <g id="Layer 1" transform="matrix(0.950679, 0, 0, 0.954513, 424.555976, -25.11612)" style="">
        <g transform="matrix(1.243116, 0, 0, 1.243116, -70.004403, -30.784813)">
          <path class="s1" d="m281.6 55.4l3.9-0.6c15.3-2.7 29.8 7.4 32.5 22.7l61.1 346.6c2.7 15.2-7.5 29.8-22.7 32.5l-3.9 0.6c-15.3 2.7-29.8-7.4-32.5-22.7l-61.1-346.6c-2.7-15.2 7.5-29.8 22.7-32.5z" style="fill: rgb(142, 76, 245);"/>
        </g>
        <g transform="matrix(1.243116, 0, 0, 1.243116, -70.004403, -30.784813)">
          <path class="s2" d="m129.1 148.6l263.6-4.6c11.2-0.2 20.5 8.7 20.7 19.9l0.2 10.2c0.2 11.2-8.8 20.4-20 20.6l-263.7 4.6c-11.2 0.2-20.4-8.7-20.6-19.9l-0.2-10.2c-0.2-11.2 8.8-20.4 20-20.6z" style="fill: rgb(255, 255, 255);"/>
          <path id="Layer copy 5" class="s2" d="m90.1 148.6l263.6-4.6c11.2-0.2 20.5 8.7 20.7 19.9l0.2 10.2c0.2 11.2-8.8 20.4-20 20.6l-263.7 4.6c-11.2 0.2-20.4-8.7-20.6-19.9l-0.2-10.2c-0.2-11.2 8.8-20.4 20-20.6z" style="fill: rgb(255, 255, 255);"/>
        </g>
        <g id="Layer copy 2"/>
        <g id="Layer copy 3" transform="matrix(1.243116, 0, 0, 1.243116, -70.004403, -30.784813)">
          <path class="s2" d="m158.1 307.6l263.6-4.6c11.2-0.2 20.5 8.7 20.7 19.9l0.2 10.2c0.2 11.2-8.8 20.4-20 20.6l-263.7 4.6c-11.2 0.2-20.4-8.7-20.6-19.9l-0.2-10.2c-0.2-11.2 8.8-20.4 20-20.6z" style="fill: rgb(255, 255, 255);"/>
          <path id="Layer copy 6" class="s2" d="m119.1 307.6l263.6-4.6c11.2-0.2 20.5 8.7 20.7 19.9l0.2 10.2c0.2 11.2-8.8 20.4-20 20.6l-263.7 4.6c-11.2 0.2-20.4-8.7-20.6-19.9l-0.2-10.2c-0.2-11.2 8.8-20.4 20-20.6z" style="fill: rgb(255, 255, 255);"/>
          <path class="s1" d="m153.6 55.4l3.9-0.6c15.3-2.7 29.8 7.4 32.5 22.7l61.1 346.6c2.7 15.2-7.5 29.8-22.7 32.5l-3.9 0.6c-15.3 2.7-29.8-7.4-32.5-22.7l-61.1-346.6c-2.7-15.2 7.5-29.8 22.7-32.5z" style="fill: rgb(142, 76, 245);"/>
          <path id="Layer copy" class="s0" d="m228.4 223.3l1.8-0.3c6.9-1.2 13.4 3.3 14.6 10.2l27.6 156.2c1.2 6.8-3.4 13.4-10.3 14.6l-1.8 0.3c-6.8 1.2-13.4-3.4-14.6-10.2l-27.5-156.2c-1.2-6.9 3.4-13.4 10.2-14.6z" style="fill: rgb(34, 34, 34);"/>
          <path id="Layer copy 4" class="s0" d="m209.4 115.3l1.8-0.3c6.9-1.2 13.4 3.3 14.6 10.2l27.6 156.2c1.2 6.8-3.4 13.4-10.3 14.6l-1.8 0.3c-6.8 1.2-13.4-3.4-14.6-10.2l-27.5-156.2c-1.2-6.9 3.4-13.4 10.2-14.6z" style="fill: rgb(34, 34, 34);"/>
        </g>
      </g>
      <path class="st0" d="M 658.888 -104.09 C 461.588 -104.09 301.588 55.889 301.588 253.199 C 301.588 450.495 461.588 610.495 658.888 610.495 C 856.188 610.495 1016.19 450.495 1016.19 253.199 C 1016.19 55.889 856.188 -104.09 658.888 -104.09 Z M 897.288 491.595 C 833.588 555.194 748.888 590.295 658.888 590.295 C 568.888 590.295 484.188 555.194 420.488 491.595 C 356.89 427.894 321.789 343.189 321.789 253.199 C 321.789 163.199 356.89 78.499 420.488 14.799 C 484.188 -48.801 568.888 -83.901 658.888 -83.901 C 748.888 -83.901 833.588 -48.801 897.288 14.799 C 960.888 78.499 995.992 163.199 995.992 253.199 C 995.992 343.189 960.888 427.894 897.288 491.595 Z" style="fill: rgb(142, 76, 245); stroke-width: 1.001;"/>
      <path d="M 897.288 14.799 C 833.588 -48.801 748.888 -83.901 658.888 -83.901 C 568.888 -83.901 484.188 -48.801 420.488 14.799 C 356.89 78.499 321.789 163.199 321.789 253.199 C 321.789 343.199 356.89 427.897 420.488 491.598 C 484.188 555.196 568.888 590.298 658.888 590.298 C 748.888 590.298 833.588 555.196 897.288 491.598 C 960.888 427.897 995.992 343.199 995.992 253.199 C 995.992 163.199 960.888 78.499 897.288 14.799 Z" style="fill: rgb(34, 34, 34); stroke-width: 1.001;"/>
      <g id="group-3" transform="matrix(0.95068, 0, 0, 0.954513, 422.487097, -21.18167)" style="">
        <g transform="matrix(1.243116, 0, 0, 1.243116, -70.004403, -30.784813)">
          <path class="s1" d="m281.6 55.4l3.9-0.6c15.3-2.7 29.8 7.4 32.5 22.7l61.1 346.6c2.7 15.2-7.5 29.8-22.7 32.5l-3.9 0.6c-15.3 2.7-29.8-7.4-32.5-22.7l-61.1-346.6c-2.7-15.2 7.5-29.8 22.7-32.5z" style="fill: rgb(142, 76, 245);"/>
        </g>
        <g transform="matrix(1.243116, 0, 0, 1.243116, -70.004403, -30.784813)">
          <path class="s2" d="m129.1 148.6l263.6-4.6c11.2-0.2 20.5 8.7 20.7 19.9l0.2 10.2c0.2 11.2-8.8 20.4-20 20.6l-263.7 4.6c-11.2 0.2-20.4-8.7-20.6-19.9l-0.2-10.2c-0.2-11.2 8.8-20.4 20-20.6z" style="fill: rgb(255, 255, 255);"/>
          <path id="path-1" class="s2" d="m90.1 148.6l263.6-4.6c11.2-0.2 20.5 8.7 20.7 19.9l0.2 10.2c0.2 11.2-8.8 20.4-20 20.6l-263.7 4.6c-11.2 0.2-20.4-8.7-20.6-19.9l-0.2-10.2c-0.2-11.2 8.8-20.4 20-20.6z" style="fill: rgb(255, 255, 255);"/>
        </g>
        <g id="group-4"/>
        <g id="group-5" transform="matrix(1.243116, 0, 0, 1.243116, -70.004403, -30.784813)">
          <path class="s2" d="m158.1 307.6l263.6-4.6c11.2-0.2 20.5 8.7 20.7 19.9l0.2 10.2c0.2 11.2-8.8 20.4-20 20.6l-263.7 4.6c-11.2 0.2-20.4-8.7-20.6-19.9l-0.2-10.2c-0.2-11.2 8.8-20.4 20-20.6z" style="fill: rgb(255, 255, 255);"/>
          <path id="path-2" class="s2" d="m119.1 307.6l263.6-4.6c11.2-0.2 20.5 8.7 20.7 19.9l0.2 10.2c0.2 11.2-8.8 20.4-20 20.6l-263.7 4.6c-11.2 0.2-20.4-8.7-20.6-19.9l-0.2-10.2c-0.2-11.2 8.8-20.4 20-20.6z" style="fill: rgb(255, 255, 255);"/>
          <path class="s1" d="m153.6 55.4l3.9-0.6c15.3-2.7 29.8 7.4 32.5 22.7l61.1 346.6c2.7 15.2-7.5 29.8-22.7 32.5l-3.9 0.6c-15.3 2.7-29.8-7.4-32.5-22.7l-61.1-346.6c-2.7-15.2 7.5-29.8 22.7-32.5z" style="fill: rgb(142, 76, 245);"/>
          <path id="path-3" class="s0" d="m228.4 223.3l1.8-0.3c6.9-1.2 13.4 3.3 14.6 10.2l27.6 156.2c1.2 6.8-3.4 13.4-10.3 14.6l-1.8 0.3c-6.8 1.2-13.4-3.4-14.6-10.2l-27.5-156.2c-1.2-6.9 3.4-13.4 10.2-14.6z" style="fill: rgb(34, 34, 34);"/>
          <path id="path-4" class="s0" d="m209.4 115.3l1.8-0.3c6.9-1.2 13.4 3.3 14.6 10.2l27.6 156.2c1.2 6.8-3.4 13.4-10.3 14.6l-1.8 0.3c-6.8 1.2-13.4-3.4-14.6-10.2l-27.5-156.2c-1.2-6.9 3.4-13.4 10.2-14.6z" style="fill: rgb(34, 34, 34);"/>
        </g>
      </g>
      <path class="st0" d="M 658.888 -94.101 C 467.108 -94.101 311.59 61.409 311.59 253.189 C 311.59 444.972 467.108 600.493 658.888 600.493 C 850.668 600.493 1006.2 444.972 1006.2 253.189 C 1006.2 61.409 850.668 -94.101 658.888 -94.101 Z M 890.618 484.921 C 828.698 546.738 746.368 580.859 658.888 580.859 C 571.408 580.859 489.078 546.738 427.158 484.921 C 365.345 423.001 331.224 340.669 331.224 253.189 C 331.224 165.709 365.345 83.379 427.158 21.469 C 489.078 -40.351 571.408 -74.471 658.888 -74.471 C 746.368 -74.471 828.698 -40.351 890.618 21.469 C 952.438 83.379 986.558 165.709 986.558 253.189 C 986.558 340.669 952.438 423.001 890.618 484.921 Z" style="fill: rgb(142, 76, 245); stroke-width: 1.001;"/>
      <ellipse style="stroke: rgb(0, 0, 0); fill: rgb(32, 32, 32); stroke-width: 2.935;" cx="283.447" cy="682.727" rx="301.754" ry="324.866"/>
      <g id="Capa_1" style="transform-origin: -2028.35px 990.605px;" transform="matrix(1.796916, 0, 0, 1.796916, 2306.667271, -309.935185)">
        <g transform="matrix(1, 0, 0, 1, -2218.35184, 800.60542)">
          <path d="M190,0C85.233,0,0,85.233,0,190s85.233,190,190,190s190-85.233,190-190S294.767,0,190,0z M190,340 c-82.71,0-150-67.29-150-150S107.29,40,190,40s150,67.29,150,150S272.71,340,190,340z" style="fill: rgb(255, 255, 255);"/>
          <path d="M291.993,184.132h-74.197c-2.696-4.393-6.403-8.1-10.796-10.796V84.139c0-9.389-7.611-17-17-17c-9.389,0-17,7.611-17,17 v89.197c-9.345,5.737-15.593,16.05-15.593,27.796c0,17.972,14.622,32.593,32.593,32.593c11.746,0,22.059-6.248,27.796-15.593 h74.197c9.389,0,17-7.611,17-17C308.993,191.743,301.382,184.132,291.993,184.132z" style="fill: rgb(255, 255, 255);"/>
        </g>
      </g>
    </g>
  </g>
  <title>dollar [#1189]</title>
  <desc>Created with Sketch.</desc>
  <ellipse style="fill: rgb(32, 32, 32); stroke: rgb(32, 32, 32);" cx="233.984" cy="336.81" rx="65.432" ry="72.132"/>
  <g id="Page-1" stroke="none" stroke-width="1" fill="none" fill-rule="evenodd" transform="matrix(5.310233, 0, 0, 5.310233, 180.541583, 283.813633)" style="">
    <g id="Dribbble-Light-Preview" transform="translate(-63.000000, -2917.000000)" fill="#000000">
      <g id="icons" transform="translate(56.000000, 160.000000)">
        <path d="M13.0000978,2768 C10.3390978,2768 9.00009781,2766.371 9.00009781,2764.5 C9.00009781,2762.691 10.2710978,2761 13.0000978,2761 L13.0000978,2768 Z M19.0000978,2773.5 L19.0000978,2773.5 C19.0000978,2775.309 17.7290978,2777 15.0000978,2777 L15.0000978,2770 C17.6610978,2770 19.0000978,2771.629 19.0000978,2773.5 L19.0000978,2773.5 Z M21.0000978,2773.5 L21.0000978,2773.5 C21.0000978,2770.732 18.9750978,2768 15.0000978,2768 L15.0000978,2761 L17.0000978,2761 C18.1050978,2761 19.0000978,2761.895 19.0000978,2763 L21.0000978,2763 C21.0000978,2760.791 19.2090978,2759 17.0000978,2759 L15.0000978,2759 L15.0000978,2757 L13.0000978,2757 L13.0000978,2759 C9.04209781,2759 7.00009781,2761.722 7.00009781,2764.5 C7.00009781,2767.268 9.02509781,2770 13.0000978,2770 L13.0000978,2777 L11.0000978,2777 C9.89509781,2777 9.00009781,2776.105 9.00009781,2775 L7.00009781,2775 C7.00009781,2777.209 8.79109781,2779 11.0000978,2779 L13.0000978,2779 L13.0000978,2781 L15.0000978,2781 L15.0000978,2779 C18.9580978,2779 21.0000978,2776.278 21.0000978,2773.5 L21.0000978,2773.5 Z" id="dollar-[#1189]" style="fill: rgb(255, 255, 255);"/>
      </g>
    </g>
  </g>
</svg>